<?xml version="1.0" encoding="utf-8"?>
<!-- Generator: Adobe Illustrator 17.0.0, SVG Export Plug-In . SVG Version: 6.00 Build 0)  -->
<!DOCTYPE svg PUBLIC "-//W3C//DTD SVG 1.1//EN" "http://www.w3.org/Graphics/SVG/1.1/DTD/svg11.dtd">
<svg version="1.1" id="Layer_1" xmlns="http://www.w3.org/2000/svg" xmlns:xlink="http://www.w3.org/1999/xlink" x="0px" y="0px"
	 width="265.167px" height="55.667px" viewBox="0 0 265.167 55.667" enable-background="new 0 0 265.167 55.667"
	 xml:space="preserve">
<g>
	<g>
		<path fill="#313131" d="M91.521,19.637h-2.597c-0.18,0-0.3,0.12-0.3,0.3v19.848c0,0.18,0.12,0.299,0.3,0.299h2.597
			c0.179,0,0.299-0.119,0.299-0.299V19.937C91.819,19.757,91.7,19.637,91.521,19.637z M104.512,19.637h-2.21
			c-0.179,0-0.298,0.12-0.298,0.3v14.133h-0.15l-3.762-14.133c-0.06-0.21-0.179-0.3-0.418-0.3H94.51c-0.179,0-0.298,0.12-0.298,0.3
			v19.848c0,0.18,0.119,0.299,0.298,0.299h2.21c0.179,0,0.298-0.119,0.298-0.299V25.651h0.18l3.941,14.134
			c0.059,0.209,0.179,0.299,0.417,0.299h2.956c0.179,0,0.299-0.119,0.299-0.299V19.937
			C104.811,19.757,104.692,19.637,104.512,19.637z M113.331,28.236l-1.225-0.481c-1.612-0.631-1.97-1.202-1.97-3.097
			c0-1.684,0.597-2.465,1.851-2.465c1.313,0,1.852,0.931,1.911,2.616c0,0.179,0.149,0.27,0.328,0.239l2.39-0.36
			c0.178-0.061,0.268-0.151,0.268-0.331c-0.178-3.186-1.642-4.991-4.987-4.991c-3.344,0-4.927,1.923-4.927,5.443
			c0,3.186,0.836,4.659,3.643,5.773l1.224,0.481c1.583,0.631,2,1.352,2,3.548c0,2.226-0.627,2.916-1.911,2.916
			c-1.373,0-2-0.842-2.09-3.008c0-0.18-0.12-0.3-0.329-0.269l-2.509,0.421c-0.178,0.029-0.238,0.149-0.238,0.33
			c0.089,3.578,1.791,5.351,5.077,5.351c3.851,0,5.195-2.104,5.195-6.134C117.033,30.734,115.988,29.29,113.331,28.236z
			 M123.345,19.637h-4.091c-0.179,0-0.299,0.12-0.299,0.3v19.848c0,0.181,0.12,0.3,0.299,0.3h2.598c0.179,0,0.299-0.119,0.299-0.3
			v-7.398c0-0.12,0.059-0.18,0.179-0.18h1.015c3.613,0,5.764-1.744,5.764-6.284C129.109,21.262,126.958,19.637,123.345,19.637z
			 M123.345,29.29h-1.015c-0.12,0-0.179-0.061-0.179-0.181v-6.374c0-0.121,0.059-0.182,0.179-0.182h1.015
			c1.821,0,2.569,0.783,2.569,3.368C125.914,28.509,125.166,29.29,123.345,29.29z M133.966,19.637h-2.597
			c-0.179,0-0.299,0.12-0.299,0.3v19.848c0,0.18,0.12,0.299,0.299,0.299h2.597c0.18,0,0.298-0.119,0.298-0.299V19.937
			C134.264,19.757,134.145,19.637,133.966,19.637z M144.419,30.944c1.524-0.872,2.419-2.556,2.419-5.232
			c0-4.482-2.18-6.075-5.792-6.075h-4.091c-0.178,0-0.299,0.12-0.299,0.3v19.848c0,0.181,0.121,0.3,0.299,0.3h2.598
			c0.179,0,0.298-0.119,0.298-0.3v-7.879c0-0.121,0.06-0.18,0.179-0.18h1.016h0.508l2.478,8.147c0.06,0.152,0.149,0.211,0.328,0.211
			h2.777c0.149,0,0.209-0.15,0.149-0.3L144.419,30.944z M141.075,28.869h-1.045c-0.119,0-0.179-0.06-0.179-0.18v-5.953
			c0-0.121,0.06-0.182,0.179-0.182h1.045c1.791,0,2.569,0.753,2.569,3.158C143.643,28.147,142.866,28.869,141.075,28.869z
			 M157.829,19.637h-8.33c-0.179,0-0.299,0.12-0.299,0.3v19.848c0,0.18,0.12,0.299,0.299,0.299h8.33c0.18,0,0.3-0.119,0.3-0.299
			v-2.318c0-0.18-0.12-0.301-0.3-0.301h-5.254c-0.12,0-0.18-0.059-0.18-0.18v-5.592c0-0.12,0.06-0.182,0.18-0.182h4.538
			c0.179,0,0.299-0.119,0.299-0.299v-2.315c0-0.18-0.12-0.302-0.299-0.302h-4.538c-0.12,0-0.18-0.061-0.18-0.18v-5.382
			c0-0.121,0.06-0.182,0.18-0.182h5.254c0.18,0,0.3-0.12,0.3-0.301v-2.316C158.129,19.757,158.008,19.637,157.829,19.637z
			 M165.037,19.637h-4.688c-0.178,0-0.299,0.12-0.299,0.3v19.848c0,0.18,0.121,0.299,0.299,0.299h4.688
			c2.658,0,4.211-1.082,4.926-3.278c0.359-1.112,0.509-2.495,0.509-6.945c0-4.451-0.15-5.834-0.509-6.946
			C169.248,20.72,167.695,19.637,165.037,19.637z M166.858,35.695c-0.358,1.021-1.014,1.472-2.149,1.472h-1.284
			c-0.119,0-0.179-0.059-0.179-0.18V22.735c0-0.121,0.06-0.182,0.179-0.182h1.284c1.135,0,1.791,0.451,2.149,1.474
			c0.239,0.751,0.359,1.744,0.359,5.834C167.217,33.952,167.097,34.942,166.858,35.695z M178.928,27.198
			c0-2.096-0.928-3.048-3.025-3.048h-2.56c-0.104,0-0.173,0.069-0.173,0.172v11.425c0,0.106,0.068,0.174,0.173,0.174h2.319
			c2.27,0,3.404-0.848,3.404-3.462c0-1.558-0.618-2.425-1.495-2.683V29.74C178.429,29.36,178.928,28.65,178.928,27.198z
			 M175.008,25.931c0-0.068,0.035-0.103,0.105-0.103h0.617c1.015,0,1.359,0.329,1.359,1.628c0,1.298-0.344,1.61-1.359,1.61h-0.617
			c-0.07,0-0.105-0.035-0.105-0.104V25.931z M175.73,34.244h-0.617c-0.07,0-0.105-0.035-0.105-0.105v-3.375
			c0-0.071,0.035-0.105,0.105-0.105h0.617c1.101,0,1.479,0.397,1.479,1.783C177.209,33.827,176.831,34.244,175.73,34.244z
			 M181.883,35.921h1.495c0.104,0,0.172-0.068,0.172-0.173v-4.657l2.235-6.769c0.036-0.103,0-0.172-0.136-0.172h-1.48
			c-0.12,0-0.17,0.051-0.205,0.172l-1.273,4.553h-0.051l-1.307-4.553c-0.034-0.121-0.086-0.172-0.206-0.172h-1.512
			c-0.138,0-0.172,0.069-0.138,0.172l2.235,6.769v4.657C181.712,35.853,181.78,35.921,181.883,35.921z M191.519,19.637h-2.598
			c-0.179,0-0.297,0.12-0.297,0.3v19.848c0,0.18,0.118,0.299,0.297,0.299h2.598c0.179,0,0.299-0.119,0.299-0.299V19.937
			C191.818,19.757,191.698,19.637,191.519,19.637z M199.044,22.283c1.165,0,1.763,0.752,1.852,2.495c0,0.211,0.147,0.302,0.328,0.27
			l2.417-0.421c0.179-0.029,0.239-0.18,0.21-0.361c-0.179-3.397-2.001-4.9-4.897-4.9c-2.479,0-3.971,1.172-4.597,3.126
			c-0.269,0.842-0.389,1.684-0.389,7.368c0,5.684,0.12,6.525,0.389,7.368c0.627,1.954,2.119,3.126,4.597,3.126
			c2.896,0,4.718-1.502,4.897-4.901c0.03-0.18-0.031-0.33-0.21-0.36l-2.417-0.421c-0.181-0.031-0.328,0.059-0.328,0.269
			c-0.09,1.745-0.688,2.497-1.852,2.497c-0.895,0-1.374-0.391-1.613-1.143c-0.148-0.481-0.208-0.902-0.208-6.435
			s0.06-5.953,0.208-6.435C197.67,22.674,198.148,22.283,199.044,22.283z M214.215,19.637h-8.329c-0.181,0-0.299,0.12-0.299,0.3
			v19.848c0,0.18,0.118,0.299,0.299,0.299h8.329c0.18,0,0.299-0.119,0.299-0.299v-2.318c0-0.18-0.119-0.301-0.299-0.301h-5.254
			c-0.12,0-0.18-0.059-0.18-0.18v-5.592c0-0.12,0.06-0.182,0.18-0.182h4.538c0.18,0,0.299-0.119,0.299-0.299v-2.315
			c0-0.18-0.119-0.302-0.299-0.302h-4.538c-0.12,0-0.18-0.061-0.18-0.18v-5.382c0-0.121,0.06-0.182,0.18-0.182h5.254
			c0.18,0,0.299-0.12,0.299-0.301v-2.316C214.514,19.757,214.395,19.637,214.215,19.637z M225.066,37.167h-5.255
			c-0.12,0-0.18-0.059-0.18-0.18v-17.05c0-0.181-0.12-0.3-0.299-0.3h-2.598c-0.179,0-0.297,0.12-0.297,0.3v19.848
			c0,0.18,0.119,0.299,0.297,0.299h8.331c0.178,0,0.299-0.119,0.299-0.299v-2.318C225.366,37.289,225.245,37.167,225.066,37.167z
			 M233.857,19.637h-2.508c-0.18,0-0.27,0.12-0.33,0.3l-4.388,19.848c-0.03,0.18,0.059,0.299,0.24,0.299h2.538
			c0.208,0,0.297-0.119,0.327-0.299l0.808-4.122h4.029l0.805,4.122c0.032,0.18,0.12,0.299,0.329,0.299h2.538
			c0.18,0,0.27-0.119,0.238-0.299l-4.299-19.848C234.156,19.757,234.035,19.637,233.857,19.637z M231.051,32.958l1.492-7.608h0.089
			l1.434,7.608H231.051z M250.497,19.637h-2.209c-0.18,0-0.298,0.12-0.298,0.3v14.133h-0.149l-3.76-14.133
			c-0.062-0.21-0.181-0.3-0.419-0.3h-3.164c-0.181,0-0.299,0.12-0.299,0.3v19.848c0,0.18,0.118,0.299,0.299,0.299h2.206
			c0.182,0,0.298-0.119,0.298-0.299V25.651h0.18l3.943,14.134c0.059,0.209,0.18,0.299,0.418,0.299h2.955
			c0.18,0,0.299-0.119,0.299-0.299V19.937C250.796,19.757,250.677,19.637,250.497,19.637z M263.12,22.915
			c-0.718-2.196-2.271-3.278-4.928-3.278h-4.689c-0.178,0-0.298,0.12-0.298,0.3v19.848c0,0.18,0.12,0.299,0.298,0.299h4.689
			c2.657,0,4.21-1.082,4.928-3.278c0.357-1.112,0.506-2.495,0.506-6.945C263.626,25.41,263.477,24.027,263.12,22.915z
			 M260.014,35.695c-0.358,1.021-1.014,1.472-2.15,1.472h-1.283c-0.121,0-0.179-0.059-0.179-0.18V22.735
			c0-0.121,0.058-0.182,0.179-0.182h1.283c1.135,0,1.792,0.451,2.15,1.474c0.24,0.751,0.359,1.744,0.359,5.834
			C260.372,33.952,260.254,34.942,260.014,35.695z M185.701,20.046h-12.233c-0.18,0-0.299,0.119-0.299,0.3v1.568
			c0,0.18,0.119,0.299,0.299,0.299h12.233c0.18,0,0.299-0.119,0.299-0.299v-1.568C186,20.166,185.881,20.046,185.701,20.046z
			 M185.701,37.859h-12.233c-0.18,0-0.299,0.119-0.299,0.3v1.567c0,0.18,0.119,0.3,0.299,0.3h12.233c0.18,0,0.299-0.12,0.299-0.3
			v-1.567C186,37.978,185.881,37.859,185.701,37.859z M67.719,25.8c-0.019-0.014-0.005-0.006-0.037-0.018
			c-0.206,0.226-0.369,0.543-0.534,0.805c-0.138-0.017-0.253-0.308-0.294-0.44c0.09-0.04,0.151-0.078,0.221-0.128
			c0.036-0.259,0.03-0.33-0.074-0.53c-0.055-0.018-0.111-0.036-0.166-0.054c-0.134-0.022-0.641,0.092-0.718,0.147
			c-0.097,0.002-0.148-0.008-0.202-0.037c0.074-0.289,0.409-0.169,0.662-0.274c0.337-0.14,0.57-0.475,0.57-0.95
			c-0.149-0.153-0.244-0.271-0.497-0.329c-0.33-0.077-0.768,0.25-1.012,0.091h-0.037c0.006-0.03,0.012-0.06,0.018-0.091
			c0.168-0.085,0.383-0.162,0.533-0.274c0.038-0.028,0.053-0.08,0.092-0.109c-0.018-0.216-0.324-0.371-0.479-0.457v-0.018
			c0.269,0.003,0.547,0.019,0.699-0.091c0.222-0.161,0.206-0.542,0.276-0.859v-0.239c0.018-0.081,0.117-0.506,0.092-0.566
			c-0.016-0.038-0.09-0.081-0.11-0.128c-0.033-0.079-0.007-0.147-0.037-0.237c-0.06-0.182-0.354-0.583-0.534-0.64v-0.018h-0.018
			c-0.093,0.09-0.215,0.154-0.294,0.256c-0.247-0.002-0.145-0.134-0.239-0.274c-0.067-0.055-0.135-0.11-0.203-0.164
			c-0.051-0.076-0.024-0.209-0.073-0.292c-0.032-0.089-0.072-0.084-0.147-0.129c-0.446-0.265-0.704,0.097-1.196-0.018
			c-0.608-0.142-1.189-0.634-1.637-0.969c-0.086-0.064-0.242-0.222-0.276-0.329c-0.098-0.308,0.354-0.809,0.148-1.078
			c-0.006-0.018-0.013-0.036-0.018-0.054c-0.283,0.027-0.612,0.285-0.847,0.401c-0.43,0.213-0.896,0.315-1.38,0.476
			c-0.201,0.067-0.441,0.172-0.681,0.183c0.036-0.226,0.201-0.419,0.239-0.622c0.013-0.067-0.043-0.072-0.055-0.109
			c-0.048-0.154,0.014-0.396,0.055-0.493c0.063-0.145,0.206-0.214,0.294-0.329c0.147-0.194,0.295-0.394,0.423-0.603
			c0.138-0.227,0.213-0.509,0.276-0.804c0.039-0.181-0.065-0.406-0.111-0.531c-0.169-0.464-0.249-0.899-0.589-1.188
			c-0.372,0.009-0.469,0.29-0.644,0.494c-0.06,0.071-0.163,0.107-0.221,0.183c-0.157-0.008-0.121-0.049-0.202-0.109
			c-0.064-0.048-0.202-0.087-0.276-0.11c-0.186-0.061-0.384-0.086-0.57-0.129c-0.059-0.013-0.112,0.007-0.129,0
			c-0.166-0.061-0.08-0.506-0.074-0.712c-0.163,0.011-0.374,0.166-0.478,0.128h-0.073c-0.021-0.076-0.039-0.141-0.037-0.256
			c0.058-0.059,0.091-0.139,0.165-0.182c0.141-0.084,0.308-0.096,0.442-0.183c0.272-0.176,0.435-0.432,0.57-0.749
			c0.076-0.179,0.142-0.501,0.037-0.713c-0.086-0.128-0.172-0.255-0.258-0.383c0.038-0.189,0.456-0.348,0.607-0.457
			c0.154-0.112,0.182-0.353,0.295-0.439c0.224-0.17,0.579-0.231,0.846-0.347c0.247-0.108,0.378-0.278,0.571-0.42V9.279
			c-0.692,0.013-1.286,0.555-1.729-0.091c-0.17,0.027-0.269,0.156-0.387,0.237c-0.382,0.266-0.689,0.631-0.938,1.024
			c-0.107,0.168-0.171,0.432-0.331,0.548c-0.122,0.088-0.292,0.145-0.46,0.183c-0.19,0.044-0.354-0.06-0.515,0
			c-0.049,0.036-0.098,0.073-0.147,0.109c-0.06,0.228-0.058,0.768,0.074,0.95c0.003,0.277-0.134,0.321-0.368,0.219
			c-0.269-0.117-0.433-0.393-0.662-0.548c-0.255-0.171-0.647-0.199-0.975-0.292c-0.031-0.119-0.06-0.289-0.074-0.439
			c-0.075-0.011-0.112-0.016-0.184-0.055c0.012-0.439,0.498-0.826,0.294-1.316c-0.147-0.354-0.642-0.602-1.012-0.731
			c-0.094-0.032-0.176,0.032-0.258-0.018c-0.095-0.058-0.207-0.537-0.147-0.749c0.02-0.072,0.078-0.137,0.111-0.201
			c-0.236-0.096-0.82-0.447-0.828-0.731h-0.037c-0.073,0.079-0.127,0.199-0.184,0.292c-0.095-0.001-0.517-0.077-0.57-0.109h-0.258
			c-0.054,0.025-0.075,0.151-0.11,0.201c-0.106,0.146-0.238,0.27-0.331,0.438C50.156,8.192,50.116,8.049,49.946,8
			c-0.307-0.089-0.72-0.001-1.048,0c-0.021,0.163-0.203,0.543-0.165,0.695c0.047,0.189,0.246,0.326,0.331,0.493
			c0.132,0.26,0.093,0.651,0.184,0.932c0.063,0.196,0.103,0.421,0.184,0.622c0.069,0.17,0.157,0.331,0.202,0.53
			c0.056,0.241-0.135,0.775-0.221,0.913c-0.182,0.294-0.303,0.197-0.552,0.348c-0.217,0.131-0.44,0.262-0.662,0.401
			c-0.258,0.162-0.511,0.328-0.791,0.476c-0.078,0.041-0.23,0.158-0.313,0.127c-0.197-0.02-0.132-0.167-0.202-0.31
			c-0.066-0.136-0.209-0.217-0.276-0.348c-0.068-0.132-0.067-0.324-0.129-0.438c-0.226-0.054-0.498-0.07-0.773-0.055
			c-0.061,0.065-0.118,0.141-0.166,0.219c-0.549,0.031-0.464,0.271-0.718,0.548c0.003,0.153,0.087,0.234,0.166,0.311
			c-0.01,0.426-0.241,0.334-0.386,0.567c-0.137,0.218-0.139,0.514-0.221,0.786c-0.054,0.18-0.134,0.397-0.147,0.602
			c-0.349,0.045-0.815,0.227-1.178,0.074c-0.282-0.119-0.286-0.522-0.442-0.768c-0.279-0.44-0.734-0.727-1.104-1.078
			c-0.001-0.242-0.254-0.218-0.441-0.273c-0.395-0.12-0.869-0.156-1.288-0.256c-0.143-0.035-0.465-0.078-0.57,0
			c-0.135,0.049-0.134,0.194-0.184,0.329c-0.146,0.396-0.019,1.142,0.092,1.535c0.086,0.306,0.137,0.682,0.294,0.932
			c0.068,0.108,0.211,0.182,0.258,0.311c0.054,0.151-0.077,0.336,0,0.474c0.074,0.136,0.298,0.219,0.423,0.311
			c0.179,0.132,0.254,0.31,0.313,0.568v0.365c0,0.355,0.032,0.746-0.037,1.06c-0.034,0.154,0.019,0.314-0.055,0.421
			c-0.021,0.053-0.047,0.065-0.092,0.091c-0.118-0.281-0.104-0.665-0.202-0.986c-0.038-0.123-0.119-0.24-0.166-0.347
			c-0.124-0.284-0.217-0.581-0.331-0.859c-0.092-0.225-0.089-0.514-0.221-0.695c-0.24-0.33-0.931-0.626-1.398-0.73
			c0.001-0.388,0.057-1.144-0.055-1.426c-0.048-0.12-0.191-0.204-0.276-0.292c-0.112,0.018-0.22,0.101-0.294,0.165h-0.037
			c0.014-0.169,0.125-0.201,0.166-0.329c0.04-0.128-0.056-0.231-0.092-0.293c-0.102-0.171-0.301-0.344-0.479-0.438
			c-0.064-0.034-0.164-0.032-0.221-0.073c-0.158-0.115-0.081-0.386-0.294-0.457c-0.066-0.054-0.262-0.076-0.331-0.018
			c-0.012,0.005-0.024,0.012-0.037,0.018c0.004,0.31-0.03,0.576-0.239,0.712c-0.017,0.021,0.002,0.002-0.018,0.018
			c-0.048-0.148,0.077-0.283,0.018-0.456c-0.011-0.033-0.056-0.074-0.074-0.11c-0.436-0.112-0.776,0.119-0.92,0.458
			c-0.043,0.188-0.086,0.376-0.129,0.566c-0.047,0.111-0.309,0.394-0.405,0.456c-0.2,0.13-0.907-0.157-1.177,0.018
			c-0.277,0.029-0.382,0.351-0.442,0.604c-0.056,0.239,0.085,0.482,0,0.695c-0.067,0.17-0.388,0.071-0.46,0.329
			c-0.044,0.156,0.099,0.22,0.147,0.292c0.148,0.224,0.279,0.556,0.387,0.804c0.086,0.198,0.204,0.465,0.221,0.695
			c0.007,0.099-0.082,0.26-0.037,0.401c0.02,0.062,0.104,0.166,0.092,0.257c-0.015,0.111-0.281,0.468-0.35,0.603
			c-0.041,0.011-0.049,0.013-0.074,0.036c-0.217-0.004-0.238-0.097-0.331-0.218c-0.036-0.048-0.105-0.068-0.147-0.111
			c-0.057-0.001-0.116-0.001-0.147,0.019c-0.1,0.039-0.137,0.221-0.184,0.31c-0.22-0.024-0.284-0.314-0.331-0.511v-0.237
			c-0.063-0.275-0.121-0.558-0.239-0.786c-0.106-0.205-0.231-0.394-0.423-0.511c-0.174-0.108-0.425-0.163-0.534-0.33
			c-0.024-0.085-0.049-0.171-0.074-0.256c-0.035-0.059-0.111-0.106-0.147-0.165c-0.107-0.17-0.157-0.363-0.239-0.549
			c-0.182-0.411-0.418-0.827-0.626-1.224c-0.113-0.217-0.311-0.725-0.534-0.804c-0.09-0.056-0.245-0.027-0.331,0.019
			c-0.095,0.05-0.162,0.144-0.276,0.182c-0.12,0.039-0.23,0.004-0.368,0.037c-0.222,0.052-0.443,0.116-0.626,0.201
			c-0.187,0.757-0.056,1.551,0.129,2.212c0.142,0.506,0.18,0.99,0.331,1.479c0.139,0.452,0.379,0.993,0.221,1.627
			c-0.097,0.39-0.23,1.176-0.497,1.371c-0.113,0.083-0.214,0.049-0.386,0.091c-0.206,0.05-0.938,0.286-1.122,0.054
			c-0.128-0.161,0.015-0.826,0.018-1.096c-0.138-0.022-0.384-0.1-0.478-0.183c-0.102,0.036-0.133,0.133-0.202,0.202
			c-0.164,0.163-0.336,0.307-0.478,0.493c-0.074,0.068-0.147,0.135-0.221,0.202c-0.162,0.213-0.416,0.435-0.515,0.694
			c-0.084,0.219-0.094,0.422-0.166,0.638c-0.073,0.224-0.275,0.658-0.202,0.988c0.08,0.365,0.186,0.684,0.276,1.041
			c0.066,0.266,0.027,0.556,0.11,0.804c-0.094-0.073-0.108-0.217-0.165-0.329c-0.137-0.264-0.279-0.54-0.386-0.84
			c-0.088-0.245-0.054-0.482-0.294-0.566V23.06h-0.018v0.019c-0.171,0.07-0.147,0.547-0.147,0.785c0,0.69,0.064,1.519-0.203,1.956
			c-0.192-0.011-0.324-0.39-0.295-0.603c0.019-0.14,0.063-0.279,0.092-0.419c0.017-0.081-0.007-0.204-0.018-0.256
			c-0.006-0.14-0.012-0.281-0.018-0.421c-0.039-0.166-0.107-0.316-0.147-0.456c-0.054-0.188-0.04-0.365-0.11-0.53
			c-0.091-0.211-0.277-0.313-0.386-0.567c-0.095-0.032-0.157-0.038-0.221-0.091c0.025-0.143,0.121-0.214,0.165-0.33
			c0.078-0.201,0.11-0.463,0.11-0.713c0-0.138,0.027-0.358-0.037-0.438c-0.031-0.076-0.089-0.066-0.147-0.11
			c-0.242,0.03-0.752,0.488-0.865,0.657h-0.018c0.16-0.285,0.319-0.573,0.479-0.859c-0.001-0.454-0.619-0.29-0.938-0.42
			c-0.205-0.084-0.662-0.362-0.57-0.713c0.039-0.15,0.145-0.262,0.184-0.402c0.14,0.075,0.142,0.331,0.276,0.421
			c0.084,0.055,0.18,0.044,0.294,0.072c0.83,0.212,0.8-0.325,1.159-0.713c-0.012-0.192-0.208-0.223-0.294-0.348h-0.018v-0.018
			c0.338-0.217,0.569-0.695,0.68-1.133c0.041-0.157-0.047-0.271,0-0.402c0.061-0.17,0.291-0.298,0.184-0.585
			c-0.093-0.249-0.396-0.347-0.607-0.475c0.006-0.036,0.012-0.073,0.018-0.109c-0.073-0.069-0.134-0.147-0.221-0.201
			c0.004-0.048,0.008-0.062,0.018-0.091c0.251-0.049,0.435-0.037,0.625-0.128c-0.022-0.189-0.645-0.563-0.846-0.602
			c-0.139-0.027-0.252,0.143-0.405,0.055c-0.183-0.071,0.034-0.268,0.111-0.312c-0.007-0.216-0.352-0.76-0.644-0.529
			c-0.105,0.036-0.109,0.141-0.147,0.238c-0.089,0.031-0.252-0.005-0.331,0.073c-0.048-0.004-0.062-0.008-0.092-0.018
			c-0.107-0.263-0.105-1.148,0.055-1.353c-0.019-0.34-0.555-0.466-0.828-0.585c-0.235-0.101-0.293-0.349-0.294-0.694
			c-0.038-0.007-0.036-0.005-0.055-0.018c-0.107-0.039-0.071-0.138-0.129-0.219c-0.071-0.189-0.325-0.111-0.478-0.073
			c-0.097,0.024-0.159-0.023-0.221-0.036c-0.023-0.081-0.063-0.18,0-0.256c-0.004-0.047-0.008-0.062-0.018-0.092
			c-0.169,0.014-0.269,0.115-0.368,0.201c-0.121-0.005-0.103-0.046-0.165-0.073c-0.049-0.021-0.118,0.004-0.129,0
			c-0.258-0.217,0.217-0.722,0.037-0.932v-0.038c-0.086,0.031-0.112,0.086-0.202,0.111c-0.011,0.014,0,0.005-0.018,0
			c-0.018-0.006-0.037-0.012-0.055-0.018c0.006-0.119,0.075-0.278,0.037-0.347c-0.043-0.069-0.154-0.065-0.221-0.11
			c-0.064-0.043-0.174-0.157-0.221-0.219c-0.092-0.123-0.197-0.277-0.258-0.42c-0.069-0.162-0.079-0.33-0.166-0.475
			c-0.062-0.104-0.174-0.176-0.239-0.275c-0.15,0.01-0.165,0.101-0.258,0.165c0.025,0.063,0.099,0.106,0.147,0.146
			c-0.004,0.048-0.008,0.062-0.018,0.092c-0.278-0.009-0.403-0.258-0.552-0.403c-0.043-0.03-0.086-0.06-0.129-0.091
			c-0.243,0.006-0.229,0.276-0.331,0.42c-0.042,0.061-0.116,0.093-0.166,0.146c-0.402-0.019-0.923-0.507-1.159-0.731
			c-0.249,0-0.382,0.059-0.533,0.146c-0.01,0.055-0.007,0.208-0.037,0.255c-0.073,0.184-0.563,0.117-0.681,0.019
			c-0.234,0-0.255,0.159-0.368,0.274c-0.006,0.018-0.012,0.036-0.018,0.054c0.043,0.037,0.086,0.074,0.129,0.11
			c0.109,0.109,0.202,0.323,0.331,0.402c0.062,0.039,0.22,0.028,0.276,0.054c-0.013,0.154-0.086,0.227-0.147,0.33
			c-0.075,0.018-0.193,0.063-0.313,0.037c-0.134-0.031-0.374-0.166-0.497-0.073c-0.07,0.025-0.082,0.065-0.129,0.11
			c0.011,0.209,0.166,0.324,0.294,0.42c0.258,0.194,0.382,0.318,0.773,0.402c0.315,0.068,0.629-0.18,0.846-0.237
			c0.155-0.04,0.235,0.066,0.349,0.092c0.225,0.049,0.356-0.087,0.589,0.018c0.096,0.501,0.604,0.389,0.828,0.749
			c0.137-0.003,0.518-0.051,0.57-0.018c0.018,0.005,0.037,0.012,0.055,0.018v0.037c-0.135,0.121-0.36,0.173-0.607,0.182v0.019
			h-0.018c0.006,0.139,0.042,0.36,0.11,0.457v0.036c-0.112-0.076-0.176-0.203-0.258-0.312c-0.073-0.096-0.225-0.192-0.331-0.255
			c-0.57-0.342-1.406-0.28-1.895,0.073c-0.076,0.054-0.12,0.152-0.184,0.219c0.008,0.41,0.359,0.675,0.607,0.859
			c0.26,0.192,0.523,0.394,0.81,0.567c0.272,0.164,0.595,0.239,0.846,0.42c0.128,0.092,0.225,0.271,0.313,0.402
			c0.171-0.003,0.268-0.047,0.405-0.036c-0.029,0.172-0.179,0.145-0.221,0.238c0.006,0.036,0.012,0.073,0.018,0.109
			c-0.022,0.067-0.13,0.115-0.092,0.237c0.047,0.149,0.209,0.281,0.295,0.403c0.229,0.325,0.496,1.208,0.165,1.626
			c-0.042-0.006-0.045-0.009-0.073-0.018c0.003-0.072,0.027-0.104,0.037-0.146c0.041-0.166-0.12-0.539-0.184-0.62
			c-0.03-0.04-0.088-0.043-0.129-0.074c-0.102-0.076-0.203-0.284-0.239-0.42h-0.018c-0.037,0.048-0.073,0.097-0.11,0.145
			c-0.188-0.009-0.183-0.154-0.258-0.273c-0.185-0.297-0.461-0.615-0.571-0.968c-0.191-0.035-0.372,0.004-0.478-0.147h-0.037
			c-0.039,0.193-0.007,0.446-0.055,0.658c-0.021,0.091-0.07,0.203-0.092,0.274v0.255c0,0.261-0.029,0.532-0.184,0.64v0.018
			c-0.022-0.019-0.03-0.036-0.055-0.055c0-0.235,0.016-0.432,0.074-0.621c0.016-0.052,0.073-0.167,0.074-0.22
			c0.001-0.062-0.071-0.086-0.092-0.128c-0.065-0.126-0.05-0.274-0.018-0.402c-0.148-0.153-0.388-0.249-0.662-0.273
			c-0.03-0.06-0.074-0.13-0.092-0.202c-0.006-0.116-0.012-0.232-0.019-0.347c-0.021-0.061-0.078-0.113-0.11-0.165
			c-0.05-0.01-0.088-0.044-0.147-0.036c-0.103,0.016-0.248,0.129-0.331,0.092h-0.055c-0.064-0.262-0.076-0.538-0.202-0.732
			c-0.183-0.278-0.634-0.525-0.92-0.711c-0.146-0.096-0.521-0.371-0.81-0.292c-0.071,0.019-0.154,0.083-0.221,0.109
			c-0.061,0.013-0.123,0.025-0.184,0.037c-0.189,0.117-0.213,0.412-0.497,0.438c0.06,0.09,0.183,0.132,0.221,0.237
			c0.015,0.019,0.007,0.004,0.018,0.037c-0.015,0.018-0.007,0.003-0.018,0.036c-0.128,0.024-0.351,0.005-0.442,0.073
			c-0.099,0.065-0.113,0.164-0.184,0.256c0.012,0.249,0.627,0.741,0.81,0.877c0.093,0.069,0.214,0.121,0.258,0.238
			c0.016,0.023,0.017,0.044,0.018,0.091c-0.128-0.009-0.18-0.062-0.276-0.091c-0.135-0.041-0.258-0.017-0.368-0.073
			c-0.155-0.082-0.287-0.237-0.441-0.329c-0.161-0.098-0.418-0.117-0.57-0.219H7.686c-0.078,0.037-0.263,0.565-0.221,0.749
			c0.031,0.135,0.08,0.275,0.147,0.384c0.296,0.478,0.747,0.933,1.196,1.261c0.305,0.221,0.627,0.408,0.901,0.658
			c-0.006,0.042-0.009,0.045-0.018,0.073c-0.247-0.012-0.346-0.167-0.515-0.255c-0.218-0.114-0.467-0.151-0.662-0.274
			c-0.256-0.161-0.482-0.408-0.773-0.53c-0.399-0.168-0.714,0.161-0.791,0.439c-0.09,0.326,0.155,0.618,0.257,0.786
			c0.279,0.454,0.549,0.865,1.067,1.078c0.248,0.102,0.559,0.084,0.846,0.147h0.386c0.485,0,0.952,0,1.196-0.237
			c0.042,0.005,0.046,0.008,0.073,0.017c-0.044,0.559-1.094,0.508-1.601,0.641c-0.139,0.034-0.287,0.019-0.386,0.09
			c-0.018,0.007-0.037,0.013-0.055,0.019c0.01,0.238,0.346,0.552,0.515,0.639c0.102,0.054,0.239,0.063,0.331,0.11
			c-0.013,0.348-0.513,0.326-0.736,0.475c-0.071,0.048-0.09,0.134-0.184,0.165c-0.019-0.014-0.005-0.007-0.037-0.019
			c-0.034-0.196,0.102-0.452,0.019-0.658c-0.104-0.258-0.491-0.62-0.717-0.767c-0.109-0.071-0.224-0.098-0.331-0.164
			c-0.386-0.243-0.754-0.544-1.141-0.786c-0.191-0.121-0.382-0.234-0.57-0.347c-0.078-0.047-0.17-0.057-0.24-0.11
			c-0.094,0.004-0.094,0.021-0.147,0.054c-0.196,0.856,0.066,1.518,0.552,1.883c0.138,0.103,0.239,0.268,0.386,0.365
			c-0.01,0.058-0.016,0.054-0.037,0.092c-0.256-0.086-0.488-0.191-0.865-0.183c0.014,0.451,0.397,0.898,0.644,1.133
			c-0.004,0.076-0.013,0.083-0.037,0.128c-0.043,0.004-0.052,0.003-0.074,0.018c-0.191-0.029-0.246-0.165-0.368-0.256
			c-0.266-0.199-0.478-0.478-0.754-0.657c-0.251-0.164-0.609-0.23-0.791-0.457C4.039,19.29,4.02,19.453,3.969,19.55
			c-0.1,0.193-0.198,0.407-0.276,0.622c-0.018,0.091-0.037,0.182-0.055,0.273c-0.068,0.134-0.204,0.125-0.331,0.202
			c-0.193,0.115-0.621,0.465-0.681,0.694c0.332,0.301,1.205,0.165,1.766,0.146c0.114-0.004,0.326-0.064,0.46-0.019
			c0.085,0.029,0.169,0.133,0.239,0.183c0.25,0.174,0.52,0.324,0.681,0.584c0.141,0.228,0.144,0.459,0.405,0.566
			c0.239,0.098,0.893,0.063,1.141-0.018c0.185-0.06,0.289-0.216,0.441-0.31c0.155-0.095,0.306-0.143,0.478-0.219
			c0.323-0.141,0.655-0.329,1.031-0.421c0.26-0.063,0.411,0.161,0.57,0.219c0.318,0.117,0.603-0.049,0.791-0.165
			c0.019-0.074,0.055-0.157,0.074-0.237c0.053-0.234-0.08-0.602,0.073-0.731c0.019-0.015,0.004-0.008,0.037-0.02
			c0.082,0.09,0.172,0.231,0.276,0.293c0.146,0.088,0.303,0.038,0.405,0.164c0.232-0.007,0.503-0.19,0.552-0.383
			c0.08,0.006,0.103,0.015,0.129,0.073c0.173-0.026,0.485-0.422,0.533-0.585c0.038,0.007,0.036,0.005,0.055,0.018
			c0.018,0.006,0.037,0.013,0.055,0.018c-0.015,0.339-0.297,0.694-0.423,0.969c0.125,0.063,0.367,0.179,0.442,0.292
			c0.045,0.069,0.026,0.138,0.092,0.183c0.065,0.045,0.16,0.045,0.221,0.092c0.066,0,0.124-0.004,0.166-0.018
			c-0.004-0.406,0.022-0.818-0.055-1.17c-0.026-0.12-0.008-0.352,0.037-0.42c0.006-0.018,0.012-0.037,0.018-0.055h0.092
			c0.035,0.266,0.109,1.113,0.269,1.23c0,0.013,0.113-0.011,0.113,0c0.006,0,0.038-0.09,0.044-0.09
			c0.016-0.438-0.001-0.746,0.145-1.067c0.031-0.012,0.061-0.024,0.092-0.036c0.088,0.187,0.048,0.368,0.073,0.623
			c0.004,0.208,0.064,0.13,0.07,0.13c0.061-0.171,0.091-0.309,0.152-0.479c0.038-0.123,0.007-0.274,0.074-0.366
			c0.018-0.025,0.035-0.033,0.055-0.055c0.048,0.004,0.063,0.008,0.092,0.018c0.114,0.493-0.018,1.366,0.221,1.755h0.111
			c0.055-0.044,0.11-0.086,0.165-0.128c0.043-0.064,0.04-0.128,0.073-0.201c0.029-0.064,0.09-0.11,0.129-0.165
			c0.057-0.011,0.123-0.019,0.202-0.018c0.08,0.083,0.157,0.153,0.221,0.256c0.195-0.007,0.557-0.231,0.681-0.33
			c0.077,0.004,0.084,0.013,0.129,0.038c-0.015,0.23-0.211,0.272-0.386,0.347c-0.297,0.126-0.658,0.229-0.92,0.384
			c0.017,0.208,0.178,0.291,0.276,0.42c0.231,0.307,0.477,0.574,1.012,0.53c0.27-0.28,0.304-0.839,0.57-1.132v-0.018
			c0.128,0.167,0.022,0.503,0.239,0.584c0.019,0.015,0.005,0.007,0.037,0.019c0.079-0.084,0.123-0.207,0.184-0.311
			c0.038,0.008,0.036,0.005,0.055,0.02c0.224,0.079,0.194,0.414,0.294,0.621c0.205,0.042,0.416,0.039,0.589,0.11
			c0.193,0.078,0.377,0.222,0.589,0.274c-0.057,0.032-0.19-0.004-0.258-0.019c-0.242-0.051-0.543-0.053-0.717,0.036
			c-0.194,0.101-0.34,0.271-0.515,0.384c-0.058,0.038-0.125,0.037-0.184,0.074c-0.2,0.121-0.409,0.261-0.607,0.384
			c-0.342,0.211-0.698,0.415-1.048,0.604c-0.168,0.09-0.396,0.125-0.552,0.237c-0.082,0.058-0.123,0.174-0.184,0.256
			c-0.121,0.162-0.297,0.313-0.441,0.457c-0.209,0.189-0.417,0.378-0.626,0.567c-0.107,0.076-0.284,0.102-0.368,0.201
			c-0.069,0.081-0.08,0.208-0.147,0.292v0.055c0.079-0.022,0.184-0.076,0.239-0.128c0.127-0.002,0.171,0.013,0.239,0.055
			c0.046,0.231-0.052,0.466-0.165,0.603v0.092c0.178-0.063,0.342-0.086,0.478-0.183c0.136-0.098,0.263-0.337,0.552-0.274
			c0.388,0.084,0.631,0.284,0.956,0.42c0.26,0.109,0.523,0.109,0.828,0.184c0.144,0.034,0.451,0.083,0.644,0.036
			c0.479-0.117,0.797-0.437,1.141-0.695c0.16-0.12,0.25-0.263,0.46-0.347c0.021,0.021,0.052,0.033,0.074,0.054
			c0.098,0.131,0.01,0.442-0.037,0.566c-0.102,0.274-0.254,0.528-0.35,0.787c-0.043,0.219-0.086,0.438-0.129,0.658
			c-0.037,0.049-0.073,0.096-0.11,0.146c-0.321,0.079-0.774,0.089-1.085-0.036c-0.114-0.046-0.249-0.127-0.368-0.164
			c-0.18-0.055-0.425,0.032-0.626-0.019c-0.331-0.084-0.568-0.285-0.901-0.365c-0.199-0.048-0.443,0.05-0.589,0.092
			c-0.491,0.139-0.948,0.167-1.306,0.42c-0.079-0.011-0.102-0.036-0.166-0.054c-0.09-0.357-0.046-0.633-0.294-0.877v-0.019
			c-0.128,0.046-0.293,0.26-0.368,0.366c-0.042,0.058-0.053,0.14-0.111,0.183c-0.155,0.112-0.416,0.108-0.533,0.255h-0.019
			c0.045,0.033,0.126,0.039,0.202,0.036c0.012,0.032,0.004,0.018,0.019,0.037c-0.024,0.124-0.285,0.28-0.46,0.237
			c-0.076-0.018-0.179-0.108-0.276-0.092c-0.115,0.021-0.219,0.116-0.313,0.164c-0.091,0.048-0.258,0.126-0.35,0.056
			c-0.072-0.041-0.032-0.076-0.074-0.147c-0.05-0.086-0.506-0.269-0.644-0.146c-0.255,0.094-0.115,0.535-0.184,0.822
			c-0.027,0.114-0.078,0.193-0.129,0.274c-0.047-0.001-0.068-0.001-0.092-0.018c-0.103-0.04-0.081-0.128-0.129-0.22
			c-0.069-0.133-0.203-0.348-0.349-0.402c-0.058-0.019-0.244,0.102-0.349,0.127c-0.15,0.035-0.304-0.022-0.423,0.037
			c-0.161,0.081-0.219,0.336-0.368,0.439c-0.075,0.053-0.182,0.034-0.276,0.073c-0.12,0.051-0.175,0.181-0.313,0.22
			c-0.196,0.055-0.782-0.066-0.902-0.128c-0.126-0.064-0.154-0.224-0.221-0.347c-0.341,0.011-0.649,0.285-0.92,0.401
			c-0.115,0.05-0.409,0.058-0.497,0.111c-0.069,0.006-0.068,0.015-0.11,0.036c0.014,0.519,0.363,0.854,0.533,1.243
			c0.043,0.097,0.085,0.219,0.111,0.311c0.036,0.127-0.007,0.255,0.055,0.347c0.049,0.123,0.227,0.148,0.349,0.201
			c0.114,0.05,0.194,0.167,0.313,0.202c0.23,0.066,0.738-0.031,0.975-0.037c0.223-0.221,0.34-0.461,0.478-0.767
			c0.299,0.001,0.762,0.095,1.049,0c0.198-0.066,0.325-0.381,0.607-0.329c0.417,0.077,0.742,0.291,1.159,0.402
			c0.631,0.168,1.349,0.126,1.969,0.292c0.206,0.055,0.456,0.067,0.663,0.147c0.063,0.023,0.109,0.088,0.184,0.108
			c0.262,0.07,0.507-0.135,0.662-0.201c0.089-0.038,0.201-0.037,0.276-0.091c0.097-0.002,0.148,0.007,0.202,0.036
			c-0.007,0.132-0.034,0.227,0.037,0.31c-0.007,0.135-0.09,0.176-0.165,0.238v0.072c0.131,0.13,0.295,0.296,0.497,0.348
			c-0.052,0.225-0.221,0.763-0.423,0.822c0.038,0.242,0.21,0.369,0.294,0.566c0.122,0.285,0.113,0.598,0.202,0.932
			c0.023,0.085,0.071,0.173,0.092,0.256c0.233-0.007,0.239-0.05,0.405,0.055c0.014,0.064,0.059,0.127,0.037,0.219
			c-0.02,0.085-0.104,0.164-0.074,0.293c0.049,0.208,0.254,0.652,0.442,0.713c0.102,0.061,0.284-0.026,0.368-0.054
			c0.16-0.055,0.421-0.086,0.497-0.219c0.006-0.055,0.012-0.11,0.018-0.164c0.033-0.109,0.124-0.259,0.202-0.329
			c0.068-0.062,0.281-0.198,0.423-0.11c0.018,0.007,0.037,0.012,0.055,0.018c-0.022,0.189-0.204,0.329-0.276,0.493
			c-0.142,0.324-0.26,0.689-0.349,1.042c-0.068,0.27,0.156,0.376,0.147,0.639c-0.258,0.263-0.453,0.588-0.718,0.841
			c0.071,0.114,0.306,0.037,0.46,0.074c0.423,0.101,0.728,0.064,1.067-0.092c0.221-0.101,0.429-0.272,0.625-0.402
			c0.058-0.038,0.089-0.09,0.12-0.15c0.013-0.026,0.101-0.087,0.138-0.143c0.097-0.143,0.459-0.441,0.644-0.493
			c0.256-0.072,0.859,0.242,0.994,0.329v0.109c-0.231,0.058-0.56-0.056-0.717-0.182c-0.352,0.063-0.401,0.758-0.879,0.699
			c-0.242,0.361-0.669,0.383-0.924,0.727c-0.088,0.119-0.132,0.287-0.221,0.402c-0.012,0.335,0.07,0.176,0.239,0.293
			c0.131,0.051,0.06,0.147,0.129,0.256c0.05,0.077,0.188,0.107,0.276,0.146c0.012,0.031,0.004,0.018,0.019,0.037
			c-0.01,0.146-0.184,0.449-0.276,0.511c-0.264,0.178-0.876,0.061-1.048-0.091c-0.097-0.001-0.148,0.008-0.202,0.037v0.11
			c0.029,0.063,0.142,0.072,0.202,0.109c0.123,0.075,0.212,0.2,0.331,0.274v0.092c-0.132,0.023-0.356-0.044-0.441,0.018
			c-0.273,0.221,0.112,0.526,0.055,0.657c-0.026,0.222-0.241,0.136-0.423,0.201c-0.245,0.089-0.479,0.382-0.736,0.403
			c-0.172,0.013-0.298-0.159-0.497-0.11c-0.261,0.063-0.523,0.221-0.717,0.365c-0.119,0.089-0.17,0.264-0.331,0.311
			c-0.146,0.042-0.38-0.039-0.46-0.091c-0.224-0.149-0.276-0.524-0.405-0.769c-0.08-0.151-0.191-0.318-0.294-0.456
			c-0.077-0.102-0.207-0.164-0.294-0.256c-0.282,0.007-0.25,0.426-0.313,0.658c-0.043,0.158-0.086,0.317-0.129,0.474
			c-0.03,0.067-0.106,0.122-0.129,0.202c-0.061,0.213,0.208,0.557,0.294,0.658c-0.035,0.249-0.177,0.432-0.276,0.622
			c-0.037,0.07-0.046,0.159-0.092,0.219c0.017,0.168,0.147,0.198,0.184,0.347c0.056,0.229-0.196,0.521-0.037,0.731
			c0.034,0.046,0.12,0.101,0.202,0.091c0.16-0.021,0.323-0.08,0.534-0.073c0.173,0.006,0.375,0.076,0.534,0
			c0.051-0.024,0.125-0.088,0.184-0.109c0.184-0.043,0.368-0.085,0.552-0.128c0.078-0.033,0.14-0.124,0.221-0.147
			c0.114-0.031,0.258,0.047,0.331,0.074c0.191,0.068,0.403,0.098,0.607,0.146c0.222,0.052,0.441-0.015,0.681,0.038
			c0.492,0.107,1.239-0.056,1.582-0.183c0.139-0.052,0.313-0.063,0.423-0.146c0.368,0.012,0.432,0.347,0.699,0.457
			c0.113,0.048,0.391,0.072,0.552,0.036c0.473-0.103,1.031-0.12,1.398-0.328c0.018-0.051,0.026-0.127,0.055-0.165
			c0.145-0.178,0.805-0.14,1.012-0.037c0.088,0.044,0.145,0.13,0.221,0.184c0.198,0.138,0.423,0.26,0.626,0.384
			c0.321,0.195,0.668,0.314,0.993,0.512c0.293,0.178,0.571,0.383,0.846,0.584c0.2,0.146,0.374,0.347,0.57,0.494
			c0.454,0.339,0.871,0.737,1.269,1.133c0.574,0.571,1.125,1.158,1.932,1.498c0.419,0.176,1.094,0.033,1.601,0.146h0.221
			c0.239,0.038,0.478,0.074,0.718,0.11c0.387,0.123,0.755,0.279,1.122,0.439c0.572,0.249,1.132,0.532,1.711,0.785
			c0.35,0.153,0.691,0.388,1.085,0.493c0.113,0.031,0.193-0.037,0.258-0.054c0.098-0.007,0.196-0.013,0.294-0.019
			c0.106-0.031,0.219-0.146,0.386-0.109c0.37,0.084,0.848,0.408,1.362,0.293c0.75-0.17,1.367-0.363,2.024-0.604
			c0.445-0.163,0.909-0.278,1.343-0.438c0.643-0.237,1.413-0.455,1.785-0.951c0.331-0.442,0.578-1.023,0.809-1.553
			c0.121-0.276,0.2-0.569,0.368-0.803c0.141-0.197,0.398-0.367,0.607-0.494c0.665-0.403,1.529-0.523,2.392-0.731
			c0.276-0.03,0.552-0.061,0.828-0.092c0.196-0.006,0.393-0.011,0.589-0.018c0.528-0.116,1.123-0.078,1.619-0.201
			c0.228-0.056,0.494-0.023,0.681-0.128c0.18-0.101,0.291-0.473,0.405-0.658c0.173-0.282,0.391-0.54,0.589-0.805
			c0.173-0.233,0.402-0.438,0.571-0.676c0.132-0.186,0.197-0.42,0.331-0.603c0.128-0.175,0.335-0.277,0.515-0.402
			c0.157-0.11,0.475-0.399,0.589-0.549c0.237-0.312,0.532-0.659,0.846-0.896c0.12-0.09,0.209-0.238,0.331-0.328
			c0.189-0.14,0.404-0.306,0.626-0.402c0.157-0.068,0.338-0.08,0.478-0.165c0.215-0.13,0.386-0.322,0.589-0.456
			c0.237-0.158,0.535-0.271,0.828-0.367c0.391-0.127,0.647-0.062,1.08-0.161c0.199-0.046,0.245-0.163,0.227-0.195
			c-0.38-0.077-0.349,0.022-0.7-0.063c-0.026-0.094-0.074-0.294,0-0.384c0.047-0.128,0.149-0.066,0.257-0.129h0.037
			c0.006-0.165-0.086-0.288-0.147-0.438c0.016-0.013,0.021-0.023,0.037-0.036c0.073-0.044,0.215,0.107,0.276,0.145
			c0.184,0.113,0.424,0.111,0.57,0.256c0.059,0.058,0.139,0.173,0.166,0.255c0.022,0.07,0.158,0.109,0.184,0.074
			c0.047-0.063,0.082-0.141,0.147-0.183c0.069-0.045,0.133-0.021,0.221-0.055c0.086-0.033,0.156-0.145,0.202-0.219
			c0.223,0.03,0.308,0.225,0.423,0.366c-0.008,0.335-0.281,0.17-0.53,0.265c-0.032,0.013-0.183,0.236,0.64,0.101
			c0.144-0.024,0.279,0.004,0.368-0.073c0.094-0.039,0.055-0.087,0.092-0.183c0.065-0.166,0.266-0.23,0.313-0.366
			c0.074-0.124-0.045-0.369,0-0.53c0.069-0.25,0.272-0.486,0.46-0.621c0.295-0.213,0.667-0.399,1.012-0.549
			c0.217-0.094,0.519-0.162,0.644-0.347c0.091-0.135,0.129-0.396,0.165-0.566c-0.006-0.049-0.012-0.098-0.018-0.147
			c0.02-0.093,0.099-0.186,0.129-0.274c0.052-0.153,0.019-0.313,0.074-0.475c0.105-0.316,0.374-0.473,0.552-0.712
			c0.102-0.138,0.15-0.32,0.258-0.458c0.011-0.16-0.045-0.429-0.221-0.311c-0.108,0.045-0.171,0.238-0.239,0.329
			c-0.133,0.178-0.61,0.688-0.809,0.768c-0.083,0.033-0.152,0.006-0.239,0c-0.05-0.051-0.148-0.085-0.184-0.146
			c-0.032-0.055-0.022-0.118-0.055-0.165c0.003-0.138,0.042-0.19,0.092-0.274c0.322-0.074,0.531-0.216,0.755-0.384
			c0.088-0.066,0.14-0.181,0.221-0.255c-0.031-0.153-0.18-0.153-0.258-0.256h-0.018v-0.019c0.028-0.018,0.036-0.026,0.055-0.054
			c0.183,0.003,0.822,0.066,0.901,0.018c0.11,0.002,0.194-0.003,0.258-0.037c-0.01-0.303-0.237-0.221-0.368-0.385
			c-0.209-0.259-0.387-0.536-0.589-0.803c-0.056-0.075-0.145-0.126-0.221-0.183c-0.082-0.062-0.131-0.164-0.203-0.238
			c0.008-0.037,0.005-0.034,0.019-0.055c0.006-0.018,0.012-0.036,0.018-0.054c0.29,0.042,0.479,0.318,0.625,0.512
			c0.277,0.367,0.8,0.714,1.398,0.494c0.153-0.057,0.323-0.134,0.46-0.22c0.24-0.15,0.215-0.294,0.368-0.493
			c0-0.317-0.091-0.227-0.184-0.401c-0.031-0.091-0.061-0.183-0.092-0.274c-0.001-0.092,0.009-0.132,0.037-0.182
			c0.18,0.014,0.45,0.161,0.644,0.109c0.118-0.031,0.427-0.286,0.552-0.366c0.006-0.018,0.012-0.037,0.019-0.054
			c-0.076-0.027-0.219-0.025-0.276-0.073c-0.015-0.019-0.007-0.004-0.019-0.037c0.113-0.094,0.277-0.115,0.405-0.201
			c0.056-0.037,0.077-0.1,0.11-0.165c0.29-0.56-0.494-0.631-0.736-0.84h-0.037v-0.019c0.588-0.001,0.954-0.012,1.306-0.237
			c-0.03-0.12-0.137-0.083-0.239-0.128c-0.124-0.054-0.271-0.156-0.386-0.237c-0.195-0.136-0.378-0.294-0.57-0.439
			c-0.125-0.093-0.214-0.245-0.368-0.31c-0.143-0.061-0.294-0.015-0.478-0.056c-0.22-0.048-0.435-0.07-0.607-0.145
			c0.027-0.165,0.242-0.118,0.386-0.165c0.128-0.042,0.182-0.105,0.239-0.219c0.526-0.009,0.844,0.374,1.178,0.622
			c0.133,0.099,0.309,0.337,0.588,0.273c0.259-0.058,0.466-0.195,0.571-0.402c0.049-0.098,0.003-0.26,0.055-0.347
			c0.112-0.186,0.586-0.391,0.478-0.768c-0.028-0.1-0.1-0.187-0.129-0.311C67.75,26.4,67.861,25.984,67.719,25.8z"/>
	</g>
</g>
</svg>
